<svg class="icon" width="16" height="20" viewBox="0 0 16 20" fill="none" xmlns="http://www.w3.org/2000/svg">
<path d="M5.6 4L4.3 5.7L3.4 4.9L2.7 5.7L4.4 7.1L6.4 4.7L5.6 4Z" fill="currentColor"/>
<path d="M8 4H13V5H8V4Z" fill="currentColor"/>
<path d="M8 6H12V7H8V6Z" fill="currentColor"/>
<path d="M13 9H8V10H13V9Z" fill="currentColor"/>
<path d="M8 11H12V12H8V11Z" fill="currentColor"/>
<path d="M13 14H8V15H13V14Z" fill="currentColor"/>
<path d="M8 16H12V17H8V16Z" fill="currentColor"/>
<path d="M4.3 10.6L5.6 9L6.4 9.6L4.4 12L2.7 10.6L3.4 9.9L4.3 10.6Z" fill="currentColor"/>
<path d="M5.6 13.9L4.3 15.6L3.4 14.8L2.7 15.6L4.4 17L6.4 14.6L5.6 13.9Z" fill="currentColor"/>
<path fill-rule="evenodd" clip-rule="evenodd" d="M14 0V1H16V20H0V1H2V0H14ZM13 1H3V2H13V1ZM15 2V19H1V2H2V3H14V2H15Z" fill="currentColor"/>
</svg>
