<svg class="icon" xmlns="http://www.w3.org/2000/svg" height="24px" width="24px" viewBox="0 0 24 24">
<path d="M12,8.9c-2,0-3.6,1.6-3.6,3.6s1.6,3.6,3.6,3.6s3.6-1.6,3.6-3.6S14,8.9,12,8.9z M12,10.1
	c1.3,0,2.4,1.1,2.4,2.4s-1.1,2.4-2.4,2.4s-2.4-1.1-2.4-2.4S10.7,10.1,12,10.1z"/>
<path d="M23,7.7c-0.1-1.4-1.3-2.6-2.7-2.6h-9L9.4,2.3C9.3,2.1,9.1,2,8.9,2H3.7C2.2,2,1,3.2,1,4.7v14.5
	C1,20.8,2.2,22,3.7,22h16.6c1.5,0,2.7-1.2,2.7-2.7V7.8L23,7.7z M6.5,20.7c0.3-1.1,1.3-1.8,2.4-1.8h6.2l0.2,0
	c1.1,0.1,1.9,0.8,2.2,1.8H6.5z M21.7,19.3c0,0.8-0.6,1.4-1.4,1.4h-1.5c-0.3-1.8-1.8-3.1-3.7-3.1H8.9l-0.2,0
	c-1.7,0.1-3.2,1.4-3.5,3.1H3.7c-0.8,0-1.4-0.6-1.4-1.4V4.7c0-0.8,0.6-1.4,1.4-1.4h4.8l1.9,2.8c0.1,0.2,0.3,0.3,0.5,0.3h9.3
	c0.8,0,1.4,0.6,1.4,1.4V19.3z"/>
</svg>