<svg class="icon" width="18" height="18" viewBox="0 0 18 18" fill="none" xmlns="http://www.w3.org/2000/svg">
<path fill-rule="evenodd" clip-rule="evenodd" d="M4.8965 13.4974L4.8965 14.4974L4.89651 15.8201L7.99212 13.6754L8.24905 13.4974H8.56162H17V1.49741L1 1.49741V13.4974H3.8965H4.8965ZM4.89652 17.0367L4.87098 17.0544L4.58552 17.2521L4.2889 17.4576C4.1231 17.5725 3.89653 17.4539 3.89653 17.2522L3.89652 16.8913L3.89652 16.544L3.89652 16.5129L3.8965 15.4974V14.4974H1C0.447716 14.4974 0 14.0497 0 13.4974V1.49741C0 0.945122 0.447715 0.497406 1 0.497406H17C17.5523 0.497406 18 0.945121 18 1.49741V13.4974C18 14.0497 17.5523 14.4974 17 14.4974H8.56162L4.89652 17.0367ZM3 6.22253C3 5.94639 3.22386 5.72253 3.5 5.72253H8.5C8.77614 5.72253 9 5.94639 9 6.22253C9 6.49868 8.77614 6.72253 8.5 6.72253H3.5C3.22386 6.72253 3 6.49868 3 6.22253ZM3.5 8.72253C3.22386 8.72253 3 8.94639 3 9.22253C3 9.49868 3.22386 9.72253 3.5 9.72253H14.5C14.7761 9.72253 15 9.49868 15 9.22253C15 8.94639 14.7761 8.72253 14.5 8.72253H3.5Z" fill="currentColor"/>
</svg>
