<svg width="20" height="21" viewBox="0 0 20 21" fill="none" xmlns="http://www.w3.org/2000/svg">
<path d="M13.5526 17.6842L16.3684 14.8684V17.1842H17.2895V13.2895H13.4211V14.2105H15.7105L12.8947 17.0263L13.5526 17.6842ZM1.89474 17.8947C1.36842 17.8947 0.921053 17.7105 0.552632 17.3421C0.184211 16.9737 0 16.5263 0 16V1.89474C0 1.36842 0.184211 0.921053 0.552632 0.552632C0.921053 0.184211 1.36842 0 1.89474 0H16C16.5263 0 16.9737 0.184211 17.3421 0.552632C17.7105 0.921053 17.8947 1.36842 17.8947 1.89474V8.55263C17.6316 8.44737 17.373 8.35544 17.1189 8.27684C16.8642 8.19754 16.5965 8.14035 16.3158 8.10526V1.89474C16.3158 1.82456 16.2807 1.75439 16.2105 1.68421C16.1404 1.61404 16.0702 1.57895 16 1.57895H1.89474C1.82456 1.57895 1.75439 1.61404 1.68421 1.68421C1.61404 1.75439 1.57895 1.82456 1.57895 1.89474V16C1.57895 16.0702 1.61404 16.1404 1.68421 16.2105C1.75439 16.2807 1.82456 16.3158 1.89474 16.3158H8.07895C8.11404 16.614 8.17123 16.8905 8.25053 17.1453C8.32912 17.3993 8.42105 17.6491 8.52632 17.8947H1.89474ZM1.57895 15.2632V16.3158V1.57895V8.10526V8.02632V15.2632ZM3.94737 13.8158H8.18421C8.2193 13.5526 8.28526 13.2895 8.38211 13.0263C8.47825 12.7632 8.57895 12.5 8.68421 12.2368H3.94737V13.8158ZM3.94737 9.73684H10.6316C11.0702 9.35088 11.5484 9.02632 12.0663 8.76316C12.5835 8.5 13.1404 8.31579 13.7368 8.21053V8.1579H3.94737V9.73684ZM3.94737 5.6579H13.9474V4.07895H3.94737V5.6579ZM15.2632 20.0526C13.9474 20.0526 12.8288 19.5923 11.9074 18.6716C10.9867 17.7502 10.5263 16.6316 10.5263 15.3158C10.5263 14 10.9867 12.8818 11.9074 11.9611C12.8288 11.0396 13.9474 10.5789 15.2632 10.5789C16.5789 10.5789 17.6975 11.0396 18.6189 11.9611C19.5396 12.8818 20 14 20 15.3158C20 16.6316 19.5396 17.7502 18.6189 18.6716C17.6975 19.5923 16.5789 20.0526 15.2632 20.0526Z" fill="#4A42CD"/>
</svg>
