<svg width="24" height="24" viewBox="0 0 24 24" fill="currentColor" xmlns="http://www.w3.org/2000/svg">
<path fill-rule="evenodd" clip-rule="evenodd" d="M17.1507 17.3518L21.0716 21.042L22.0996 19.9497L3.02805 2L2 3.0923L3.80629 4.79234C3.80624 4.79847 3.80621 4.80461 3.80621 4.81077V15.6334C3.80621 16.1136 3.97257 16.52 4.30529 16.8527C4.63802 17.1855 5.04448 17.3518 5.52468 17.3518H17.1507ZM15.6357 15.9259L5.23214 6.13432V15.6334C5.23214 15.7187 5.25957 15.7888 5.31442 15.8436C5.36927 15.8985 5.43936 15.9259 5.52468 15.9259H15.6357ZM20.1498 3.0923H6.81366L8.32871 4.51823H20.2961L13.1603 9.06558L14.0967 9.94689L20.4424 5.88932V15.6334C20.4424 15.7182 20.4152 15.788 20.361 15.8427L21.4003 16.8209C21.7123 16.4942 21.8683 16.0983 21.8683 15.6334V4.81077C21.8683 4.33057 21.7019 3.92411 21.3692 3.59139C21.0365 3.25866 20.63 3.0923 20.1498 3.0923Z" fill="currentColor"/>
</svg>
