<svg class="icon" width="20" height="17" viewBox="0 0 20 17" fill="none" xmlns="http://www.w3.org/2000/svg">
	<path fill-rule="evenodd" clip-rule="evenodd" d="M7.11396 11.3863C7.84529 12.0768 8.83162 12.5002 9.91683 12.5002C12.172 12.5002 14.0002 10.672 14.0002 8.41683C14.0002 7.33162 13.5768 6.34528 12.8863 5.61396L11.8249 6.67532C12.2443 7.1346 12.5002 7.74584 12.5002 8.41683C12.5002 9.84356 11.3436 11.0002 9.91683 11.0002C9.24584 11.0002 8.6346 10.7443 8.17532 10.3249L7.11396 11.3863ZM9.83711 5.8347C8.47373 5.87603 7.37602 6.97373 7.3347 8.33711L6.02272 9.6491C5.8998 9.26028 5.8335 8.8463 5.8335 8.41683C5.8335 6.16167 7.66167 4.3335 9.91683 4.3335C10.3463 4.3335 10.7603 4.3998 11.1491 4.52272L9.83711 5.8347Z" fill="currentColor"/>
	<path fill-rule="evenodd" clip-rule="evenodd" d="M4.24903 14.251C5.73923 15.1788 7.62865 15.8333 9.91667 15.8333C13.2184 15.8333 15.6901 14.4703 17.3298 12.89C18.1468 12.1027 18.7622 11.2573 19.1769 10.4899C19.5784 9.74683 19.8333 8.99951 19.8333 8.41667C19.8333 7.83382 19.5784 7.0865 19.1769 6.34345C18.7622 5.57599 18.1468 4.73066 17.3298 3.9433C16.8787 3.50857 16.3647 3.09029 15.7877 2.71229L14.7005 3.79954C15.3051 4.16592 15.8341 4.58506 16.2889 5.02337C16.9938 5.70268 17.5154 6.42401 17.8572 7.05655C18.2122 7.7135 18.3333 8.19951 18.3333 8.41667C18.3333 8.63382 18.2122 9.11983 17.8572 9.77678C17.5154 10.4093 16.9938 11.1307 16.2889 11.81C14.8849 13.163 12.7733 14.3333 9.91667 14.3333C8.09104 14.3333 6.56968 13.8553 5.34286 13.1571L4.24903 14.251ZM12.7511 2.92046C11.9045 2.65621 10.9603 2.5 9.91667 2.5C7.06004 2.5 4.9484 3.6703 3.5444 5.02337C2.83952 5.70268 2.31791 6.42401 1.9761 7.05655C1.62111 7.7135 1.5 8.19951 1.5 8.41667C1.5 8.63382 1.62111 9.11983 1.9761 9.77678C2.31791 10.4093 2.83952 11.1307 3.5444 11.81C3.59787 11.8615 3.65236 11.9128 3.70788 11.9637L2.64638 13.0252C2.59808 12.9803 2.55046 12.9353 2.50351 12.89C1.68652 12.1027 1.07116 11.2573 0.656448 10.4899C0.25493 9.74683 0 8.99951 0 8.41667C0 7.83382 0.25493 7.0865 0.656448 6.34345C1.07116 5.57599 1.68652 4.73066 2.50351 3.9433C4.14326 2.36303 6.61496 1 9.91667 1C11.4267 1 12.7632 1.28512 13.9258 1.74574L12.7511 2.92046Z" fill="currentColor"/>
	<line x1="2.75" y1="15.6893" x2="17.2457" y2="1.19365" stroke="currentColor" stroke-width="1.5" stroke-linecap="round"/>
</svg>
