<svg class="icon" xmlns="http://www.w3.org/2000/svg" height="24px" width="24px" viewBox="0 0 20 20">
<path fill="currentColor" d="M18.2,9.1c-0.1-0.6-0.7-1-1.2-1c0,0,0,0,0,0c-0.4,0-0.8-0.2-0.9-0.6c-0.1-0.4,0-0.8,0.3-1.1
	c0.4-0.4,0.5-1,0.1-1.5c-0.4-0.5-0.8-0.9-1.3-1.3c-0.5-0.4-1.1-0.3-1.5,0.1c-0.3,0.3-0.7,0.4-1.1,0.3c-0.4-0.2-0.6-0.5-0.6-1
	c0-0.6-0.4-1.1-1-1.2c-0.6-0.1-1.2-0.1-1.9,0c-0.6,0.1-1,0.6-1,1.1c0,0.4-0.2,0.8-0.6,0.9C7.1,4,6.7,3.9,6.4,3.6
	C6,3.2,5.4,3.2,4.9,3.5C4.4,3.9,4,4.3,3.6,4.8C3.2,5.3,3.2,6,3.7,6.4C4,6.6,4.1,7.1,3.9,7.5c-0.2,0.4-0.6,0.6-1,0.6
	c-0.6,0-1.1,0.4-1.1,1c-0.1,0.6-0.1,1.3,0,1.9c0.1,0.6,0.7,1,1.2,1c0,0,0,0,0,0c0.4,0,0.7,0.2,0.9,0.6c0.2,0.4,0,0.8-0.3,1.1
	c-0.4,0.4-0.5,1.1-0.1,1.5c0.4,0.5,0.8,0.9,1.3,1.3c0.5,0.4,1.1,0.3,1.5-0.1c0.3-0.3,0.7-0.4,1.1-0.3c0.4,0.2,0.6,0.5,0.6,1
	c0,0.6,0.4,1.1,1,1.2c0.3,0,0.6,0.1,1,0.1h0h0c0.3,0,0.6,0,0.9-0.1c0.6-0.1,1-0.6,1-1.1c0-0.4,0.2-0.8,0.6-0.9
	c0.4-0.1,0.8,0,1.1,0.3c0.4,0.4,1.1,0.5,1.5,0.1c0.5-0.4,0.9-0.8,1.3-1.3c0.4-0.5,0.3-1.1-0.1-1.5c-0.3-0.3-0.4-0.7-0.3-1.1
	c0.1-0.4,0.5-0.6,0.9-0.6H17c0.6,0,1.1-0.4,1.2-1C18.3,10.3,18.3,9.7,18.2,9.1z M14.8,12c-0.3,0.8-0.2,1.8,0.4,2.5
	c-0.2,0.3-0.5,0.5-0.8,0.8c-0.7-0.6-1.6-0.7-2.5-0.4c-0.8,0.3-1.4,1.1-1.5,2c-0.4,0-0.7,0-1.1,0c-0.1-0.9-0.6-1.7-1.5-2.1
	c-0.8-0.3-1.8-0.2-2.5,0.4C5.3,15,5,14.7,4.8,14.4c0.6-0.7,0.8-1.6,0.4-2.5c-0.3-0.8-1.1-1.4-2-1.5c0-0.4,0-0.7,0-1.1
	C4.1,9.4,4.8,8.8,5.2,8c0.3-0.8,0.2-1.8-0.4-2.5C5,5.2,5.3,5,5.6,4.8C6.3,5.3,7.2,5.5,8,5.2c0.8-0.3,1.4-1.1,1.5-2
	c0.4,0,0.7,0,1.1,0c0.1,0.9,0.6,1.7,1.5,2.1c0.8,0.3,1.8,0.2,2.5-0.4C14.8,5,15,5.3,15.2,5.5c-0.6,0.7-0.8,1.6-0.4,2.4
	c0.3,0.8,1.1,1.4,2,1.5c0,0.4,0,0.7,0,1.1C15.9,10.6,15.1,11.2,14.8,12z"/>
<path fill="currentColor" d="M10,6.8c-0.9,0-1.7,0.3-2.3,0.9C7.1,8.4,6.8,9.2,6.8,10c0,0.8,0.3,1.7,0.9,2.3c0.6,0.6,1.4,0.9,2.3,0.9
	c0,0,0,0,0,0c0.9,0,1.7-0.3,2.3-0.9c0.6-0.6,0.9-1.4,0.9-2.3c0-0.9-0.3-1.7-0.9-2.3C11.7,7.1,10.9,6.8,10,6.8z M11.8,10
	c0,0.7-0.4,1.4-1.1,1.7c-0.7,0.3-1.5,0.1-2-0.4C8.2,10.8,8,10,8.3,9.3S9.3,8.2,10,8.2l0.1,0c0.5,0,0.9,0.2,1.2,0.5
	C11.7,9.1,11.8,9.5,11.8,10z"/>
</svg>
