<svg width="20" height="16" viewBox="0 0 20 16" xmlns="http://www.w3.org/2000/svg">
<path d="M6.72922 15.8981C6.40751 15.8981 6.12601 15.7775 5.88472 15.5362C5.64343 15.2949 5.52279 15.0134 5.52279 14.6917V12.4129H8.68633V8.73995C7.98928 8.84719 7.28329 8.79803 6.56836 8.59249C5.85344 8.38695 5.23682 8.02502 4.7185 7.5067V5.89812H3.24397L0 2.62735C0.625558 2.09115 1.35389 1.65326 2.18499 1.31367C3.01609 0.974084 3.86059 0.80429 4.7185 0.80429C5.34406 0.80429 6.01877 0.90706 6.74263 1.1126C7.46649 1.31814 8.11439 1.64433 8.68633 2.09115V0H20V13.5121C20 14.1912 19.7676 14.7587 19.3029 15.2145C18.8382 15.6702 18.2752 15.8981 17.6139 15.8981H6.72922ZM9.91957 12.4129H16.4343V13.5121C16.4343 13.8517 16.546 14.1332 16.7694 14.3566C16.9928 14.58 17.2744 14.6917 17.6139 14.6917C17.9535 14.6917 18.235 14.58 18.4584 14.3566C18.6819 14.1332 18.7936 13.8517 18.7936 13.5121V1.20643H9.91957V3.02949L16.0858 9.22252V10.0804H15.2279L11.8231 6.70241L11.2332 7.34584C11.0188 7.57819 10.8088 7.76139 10.6032 7.89544C10.3977 8.02949 10.1698 8.15907 9.91957 8.28418V12.4129ZM3.80697 4.69169H5.92493V6.9437C6.28239 7.15818 6.62198 7.31904 6.9437 7.42627C7.26542 7.53351 7.57819 7.58713 7.88204 7.58713C8.36461 7.58713 8.83825 7.46649 9.30295 7.2252C9.76765 6.98391 10.1251 6.72922 10.3753 6.46113L10.9383 5.8177L9.00804 3.8874C8.41823 3.29759 7.76139 2.83735 7.03753 2.5067C6.31367 2.17605 5.54066 2.01072 4.7185 2.01072C4.20018 2.01072 3.70867 2.08668 3.24397 2.23861C2.77927 2.39053 2.34138 2.57373 1.93029 2.7882L3.80697 4.69169ZM15.2279 13.6193H6.72922V14.6917H15.63C15.5049 14.5845 15.4066 14.4325 15.3351 14.2359C15.2636 14.0393 15.2279 13.8338 15.2279 13.6193Z"/>
</svg>
