<svg class="icon" xmlns="http://www.w3.org/2000/svg" height="20px" width="20px" viewBox="0 0 20 20">
<path d="M11.1,16.7H3.7c-0.2,0-0.4-0.2-0.4-0.4V3.8c0-0.2,0.2-0.4,0.4-0.4h7.4c0.4,0,0.7-0.3,0.7-0.7s-0.3-0.7-0.7-0.7
	H3.7c-1,0-1.9,0.8-1.9,1.9v12.5c0,1,0.8,1.9,1.9,1.9h7.4c0.4,0,0.7-0.3,0.7-0.7C11.9,17,11.5,16.7,11.1,16.7z"/>
<path d="M17.9,9.5l-4-4c-0.3-0.2-0.7-0.2-1,0c-0.3,0.3-0.3,0.7,0,1l2.8,2.8H6.6c-0.4,0-0.7,0.3-0.7,0.7s0.3,0.7,0.7,0.7
	h9.1l-2.7,2.7c-0.2,0.1-0.2,0.3-0.2,0.5c0,0.2,0.1,0.4,0.2,0.5c0.1,0.1,0.3,0.2,0.5,0.2c0,0,0,0,0,0c0.2,0,0.4-0.1,0.5-0.2l4-4
	C18.2,10.2,18.2,9.8,17.9,9.5z"/>
</svg>
