<svg class="icon" width="20" height="20" viewBox="0 0 20 20" fill="none" xmlns="http://www.w3.org/2000/svg">
<path d="M0.833252 18.3334V16.25C0.833252 14.4091 2.32564 12.9167 4.16659 12.9167H10.8333C12.6742 12.9167 14.1666 14.4091 14.1666 16.25V18.3334" stroke="currentColor" stroke-width="1.5" stroke-linecap="round" stroke-linejoin="round"/>
<path d="M10.9166 5.41665C10.9166 7.60261 9.32122 9.24998 7.49992 9.24998C5.67861 9.24998 4.08325 7.60261 4.08325 5.41665C4.08325 3.23069 5.67861 1.58331 7.49992 1.58331C9.32122 1.58331 10.9166 3.23069 10.9166 5.41665Z" stroke="currentColor" stroke-width="1.5"/>
<path d="M13.3333 1.66669V1.66669C14.8262 2.16435 15.8333 3.56152 15.8333 5.13525V5.69812C15.8333 7.27186 14.8262 8.66903 13.3333 9.16669V9.16669" stroke="currentColor" stroke-width="1.5" stroke-linecap="round"/>
<path d="M16.6667 12.9167L17.3113 13.3464C18.4705 14.1192 19.1667 15.4201 19.1667 16.8133V18.3334" stroke="currentColor" stroke-width="1.5" stroke-linecap="round"/>
</svg>
