<svg width="24" height="24" stroke="currentColor" viewBox="0 0 24 24" fill="none" xmlns="http://www.w3.org/2000/svg">
<g clip-path="url(#clip0)">
<mask id="path-1-inside-1" fill="white">
<path fill-rule="evenodd" clip-rule="evenodd" d="M20.4954 2.06066C20.4954 1.64645 20.8311 1.31066 21.2454 1.31066C21.6596 1.31066 21.9954 1.64645 21.9954 2.06066L21.9954 8.06066C21.9954 8.07086 21.9952 8.08102 21.9948 8.09112C21.9952 8.10122 21.9954 8.11137 21.9954 8.12157C21.9954 8.53578 21.6596 8.87157 21.2454 8.87157L15.2454 8.87157C14.8311 8.87157 14.4954 8.53578 14.4954 8.12157C14.4954 7.70735 14.8311 7.37157 15.2454 7.37157L20.4954 7.37157L20.4954 2.06066Z"/>
</mask>
<path d="M21.2454 1.31066L21.2454 -0.18934H21.2454L21.2454 1.31066ZM20.4954 2.06066L18.9954 2.06066L18.9954 2.06066L20.4954 2.06066ZM21.9954 2.06066L20.4954 2.06066L20.4954 2.06066L21.9954 2.06066ZM21.9954 8.06066L23.4954 8.06066L21.9954 8.06066ZM21.9948 8.09112L20.4959 8.03125L20.4936 8.09111L20.4959 8.15097L21.9948 8.09112ZM21.9954 8.12157H20.4954L20.4954 8.12157L21.9954 8.12157ZM21.2454 8.87157L21.2454 10.3716L21.2454 8.87157ZM15.2454 8.87157L15.2454 7.37157L15.2454 7.37157L15.2454 8.87157ZM14.4954 8.12157L12.9954 8.12157L12.9954 8.12157L14.4954 8.12157ZM15.2454 7.37157L15.2454 5.87157L15.2454 5.87157L15.2454 7.37157ZM20.4954 7.37157L20.4954 8.87157H21.9954L21.9954 7.37157L20.4954 7.37157ZM21.2454 -0.18934C20.0027 -0.18934 18.9954 0.81802 18.9954 2.06066L21.9954 2.06066C21.9954 2.47487 21.6596 2.81066 21.2454 2.81066L21.2454 -0.18934ZM23.4954 2.06066C23.4954 0.818019 22.488 -0.18934 21.2454 -0.18934L21.2454 2.81066C20.8311 2.81066 20.4954 2.47487 20.4954 2.06066L23.4954 2.06066ZM23.4954 8.06066V2.06066L20.4954 2.06066L20.4954 8.06066L23.4954 8.06066ZM23.4936 8.15099C23.4948 8.12094 23.4954 8.09083 23.4954 8.06066L20.4954 8.06066C20.4954 8.0509 20.4956 8.04109 20.4959 8.03125L23.4936 8.15099ZM20.4959 8.15097C20.4956 8.14111 20.4954 8.13131 20.4954 8.12157L23.4954 8.12157C23.4954 8.09143 23.4948 8.06133 23.4936 8.03127L20.4959 8.15097ZM20.4954 8.12157C20.4954 7.70735 20.8311 7.37157 21.2454 7.37157L21.2454 10.3716C22.488 10.3716 23.4954 9.36421 23.4954 8.12157L20.4954 8.12157ZM21.2454 7.37157L15.2454 7.37157L15.2454 10.3716L21.2454 10.3716L21.2454 7.37157ZM15.2454 7.37157C15.6596 7.37157 15.9954 7.70735 15.9954 8.12157L12.9954 8.12157C12.9954 9.36421 14.0027 10.3716 15.2454 10.3716L15.2454 7.37157ZM15.9954 8.12157C15.9954 8.53578 15.6596 8.87157 15.2454 8.87157L15.2454 5.87157C14.0027 5.87157 12.9954 6.87893 12.9954 8.12157L15.9954 8.12157ZM15.2454 8.87157L20.4954 8.87157L20.4954 5.87157L15.2454 5.87157L15.2454 8.87157ZM18.9954 2.06066L18.9954 7.37157L21.9954 7.37157L21.9954 2.06066L18.9954 2.06066Z" fill="currentColor" mask="url(#path-1-inside-1)"/>
<path d="M20.3639 7.39115C18.5768 4.67072 15.4982 2.87451 12 2.87451C6.47715 2.87451 2 7.35166 2 12.8745C2 18.3974 6.47715 22.8745 12 22.8745C13.3559 22.8745 14.6487 22.6047 15.8277 22.1158C17.05 21.6089 18.15 20.8667 19.0711 19.9456C19.9922 19.0245 20.7344 17.9245 21.2413 16.7022" stroke-width="1.5" stroke-linecap="round"/>
</g>
<defs>
<clipPath id="clip0">
<rect width="24" height="24" fill="white"/>
</clipPath>
</defs>
</svg>
