<svg width="24px" height="24px" viewBox="0 0 24 24" version="1.1" xmlns="http://www.w3.org/2000/svg" xmlns:xlink="http://www.w3.org/1999/xlink">
    <g id="Page-1" stroke="none" stroke-width="1" fill="none" fill-rule="evenodd">
        <g id="icon-24-save" transform="translate(-12.000000, -12.000000)" stroke="currentColor" stroke-width="1.5">
            <g id="save" transform="translate(13.000000, 13.000000)">
                <path d="M0,2 L0,20 C1.3527075e-16,21.1045695 0.8954305,22 2,22 L20,22 C21.1045695,22 22,21.1045695 22,20 L22,6.42108939 C22,6.15671615 21.8953102,5.90310016 21.7088256,5.71570564 L16.3140597,0.294616253 C16.1263853,0.106026142 15.871294,-2.60238738e-15 15.6052341,0 L2,0 C0.8954305,2.02906125e-16 -1.3527075e-16,0.8954305 0,2 Z" id="disk"></path>
                <path d="M6.05297852,0 L6.05297852,4.47839355 C6.05297852,4.75453593 6.27683614,4.97839355 6.55297852,4.97839355 L15.4658203,4.97839355 C15.7419627,4.97839355 15.9658203,4.75453593 15.9658203,4.47839355 L15.9658203,0 L15.9658203,0" id="cap"></path>
                <circle id="circle" cx="11" cy="13.5405273" r="4"></circle>
            </g>
        </g>
    </g>
</svg>
