<svg width="24" height="25" viewBox="0 0 24 25" fill="none" xmlns="http://www.w3.org/2000/svg">
<path d="M12 5.3382C12.4142 5.3382 12.75 5.67398 12.75 6.0882V11.3396H16.1667C16.5809 11.3396 16.9167 11.6754 16.9167 12.0896C16.9167 12.5038 16.5809 12.8396 16.1667 12.8396H12C11.5858 12.8396 11.25 12.5038 11.25 12.0896C11.25 12.0893 11.25 12.0898 11.25 12.0896C11.25 12.0893 11.25 12.0884 11.25 12.0882V6.0882C11.25 5.67398 11.5858 5.3382 12 5.3382Z" fill="#616161"/>
<path fill-rule="evenodd" clip-rule="evenodd" d="M22 12.0896C22 17.6124 17.5228 22.0896 12 22.0896C6.47715 22.0896 2 17.6124 2 12.0896C2 6.56675 6.47715 2.0896 12 2.0896C17.5228 2.0896 22 6.56675 22 12.0896ZM12 20.5896C16.6944 20.5896 20.5 16.784 20.5 12.0896C20.5 7.39518 16.6944 3.5896 12 3.5896C7.30558 3.5896 3.5 7.39518 3.5 12.0896C3.5 16.784 7.30558 20.5896 12 20.5896Z" fill="#616161"/>
</svg>
