<svg class="icon" width="18" height="20" viewBox="0 0 18 20" fill="none" xmlns="http://www.w3.org/2000/svg">
<path class="icon__path" d="M9.9 6L11.5 4.7L12.1 5.5L9.7 7.4L8.3 5.7L9.1 5.1L9.9 6Z" fill="currentColor"/>
<path class="icon__path" fill-rule="evenodd" clip-rule="evenodd" d="M6.1 6L9.1 0L15.3 3.1L13.9 6L18 11V20H0V11L4.1 6H6.1ZM6.4 7.5L8.1 8.3H11.6L12.3 7L14 3.6L9.5 1.3L7.2 6L6.7 7L6.4 7.5ZM13.4 7L12.7 8.3H13.4L14.2 9.3H3.8L4.6 8.3H5.9L5.1 7.9L5.6 7H4.6L1.3 11H16.7L13.4 7ZM1 12V19H17V12H1Z" fill="currentColor"/>
</svg>
